<svg width="532.4800079345703" height="84.37604476987191" viewBox="0 0 374.5483870967742 59.35041880867011" class="css-1j8o68f"><defs id="SvgjsDefs1259"></defs><g id="SvgjsG1260" featurekey="0LeO0L-0" transform="matrix(4.238108870481863,0,0,4.238108870481863,0,-25.411419091818434)" fill="#0dceda"><path d="M0.21484 5.996 l3.125 -0.0000095367 c0.34505 1.2565 1.0547 3.7728 2.1289 7.5488 l1.2305 0 c0.032549 0 0.16602 -0.45247 0.40039 -1.3574 c0.52083 -1.7773 1.1035 -3.8411 1.748 -6.1914 l2.8906 0 l0 9.082 l0.16602 0 l0 1.6602 l-0.87891 0 l0 0.30273 l0.87891 0 l0 2.959 l-2.4609 0 l0 -1.084 l0.30273 0 l0 -3.3594 l-0.51758 0 l0 -1.6797 l-0.3125 0 l-0.019531 0.087891 l-0.26367 0 l0 2.3926 l-0.84961 0 l0 1.1133 l-0.73242 0 l0 1.8945 l-1.7285 0 l0 -1.2109 l-1.0645 0 l0 -1.6602 l-0.63477 0 l0 -1.7188 l-0.36133 0 c-0.013018 -0.097656 -0.091143 -0.39714 -0.23438 -0.89844 l2.4805 0 l-0.068359 -0.33203 l-2.4805 0 l0.068359 0.33203 l-0.33203 0 l0 2.168 l0.16602 0 l0 2.3926 l-0.61523 0 l0 0.42969 l0.61523 0 l0 0.63477 l-2.2266 0 l0 -2.8809 l-0.41992 0 l0 -10.625 z M2.6758 12.5488 l0 0.16602 c0 0.14323 0.0065136 0.41992 0.019531 0.83008 l0.23438 0 c-0.15625 -0.63151 -0.23438 -0.96354 -0.23438 -0.99609 l-0.019531 0 z M9.2285 12.5684 l-0.21484 0.97656 l0.21484 0 c0.013018 -0.40364 0.019531 -0.69661 0.019531 -0.87891 l0 -0.097656 l-0.019531 0 z M1.8945 13.5449 l0 0.33203 l0.78125 0 l0 -0.33203 l-0.78125 0 z M6.7383 13.5449 l-0.068359 0.33203 l2.2266 0 c0.065107 -0.17578 0.097656 -0.28646 0.097656 -0.33203 l-2.2559 0 z M9.248 13.5449 l0 0.33203 l1.709 0 l0 -0.33203 l-1.709 0 z M5.5566 13.876999999999999 c0.11067 0.5013 0.18229 0.75195 0.21484 0.75195 l0.2832 0 l0 1.25 l0.44922 0 l0 -1.9336 l0.11719 0 l0 -0.068359 l-1.0645 0 z M11.904 16.7383 l1.416 0 l0 0.30273 l-1.416 0 l0 -0.30273 z M12.041 17.1582 l0.11719 -0.0000095367 l0 0.21484 l0.19531 0 l0 -0.16602 c0 -0.032549 0.016279 -0.048828 0.048828 -0.048828 l0.039063 0 c0.032549 0.0065136 0.048828 0.022793 0.048828 0.048838 l0 0.44922 c0 0.032549 -0.016279 0.048828 -0.048828 0.048828 l-0.087891 0 l0 -0.21484 l-0.19531 0 l0 0.21484 l-0.11719 0 l0 -0.54688 z M12.041 17.8711 l0.33203 -0.0000095367 c0.032549 0.0065136 0.048828 0.022793 0.048828 0.048838 l0 0.068359 l-0.26367 0 l0 0.097656 l0.21484 0 l0 0.11719 l-0.21484 0 l0 0.21484 l-0.11719 0 l0 -0.54688 z M12.07 18.584 l0.33202 0 c0.026045 0 0.039063 0.013018 0.039063 0.039063 l0 0.048828 l-0.25391 0.33203 l0.25391 0 l0 0.11719 l-0.40039 0 c-0.032549 0 -0.048828 -0.022783 -0.048828 -0.068359 c0.05208 -0.078125 0.13997 -0.19531 0.26367 -0.35156 l-0.23438 0 l0 -0.078125 c0.0065136 -0.026045 0.022793 -0.039063 0.048838 -0.039063 z M12.041 19.28708 l0.11719 -0.0000095367 l0 0.3125 l0.029297 0.11719 l0.11719 0 c0.032549 0 0.048828 -0.016279 0.048828 -0.048828 l0 -0.33203 c0 -0.032549 0.016279 -0.048828 0.048828 -0.048828 l0.039063 0 c0.032549 0.0065136 0.048828 0.022793 0.048828 0.048838 l0 0.2832 c0 0.14323 -0.071611 0.21484 -0.21484 0.21484 l-0.039063 0 c-0.091143 0 -0.15625 -0.039063 -0.19531 -0.11719 l0 -0.42969 z M0 19.6191 l2.5098 0 l0 0.21484 l-2.5098 0 l0 -0.21484 z"></path></g><g id="SvgjsG1261" featurekey="pulpyG-0" transform="matrix(2.9366585612781653,0,0,2.9366585612781653,79.23800444314072,-8.151616485798218)" fill="#0dceda"><path d="M3.42 13.16 l0 6.84 l-2.82 0 l0 -14.5 l3.06 0 l1.58 6.12 l1.58 -6.12 l3.08 0 l0 14.5 l-2.82 0 l0 -6.84 l-1.84 5.8 z M11.1 5.5 l2.9 0 l0 14.5 l-2.9 0 l0 -14.5 z M15.2 5.5 l2.76 0 l1.48 5.82 l0 -5.82 l2.98 0 l0 14.5 l-2.98 0 l-1.56 -6.06 l0 6.06 l-2.68 0 l0 -14.5 z M23.62 5.5 l2.9 0 l0 14.5 l-2.9 0 l0 -14.5 z M27.72 5.5 l5.64 0 l0.5 2.7 l-3.16 0 l0 3.44 l2.4 0 l0 2.5 l-2.4 0 l0 3.16 l3.04 0 l-0.5 2.7 l-5.52 0 l0 -14.5 z M37.12 20 c-0.84 0 -1.4267 -0.17334 -1.76 -0.52 s-0.5 -0.92 -0.5 -1.72 l0 -10.48 c0 -0.57334 0.16334 -1.0133 0.49 -1.32 s0.73 -0.46 1.21 -0.46 l3.82 0 l0.5 2.7 l-2.78 0 c-0.17334 0 -0.26 0.09334 -0.26 0.28 l0 8.54 c0 0.18666 0.08666 0.28 0.26 0.28 l2.78 0 l-0.52 2.7 l-3.24 0 z M45.02 8.04 c-0.17334 0 -0.26 0.09334 -0.26 0.28 l0 8.84 c0 0.10666 0.01666 0.18332 0.05 0.22998 s0.11 0.07 0.23 0.07 l1.1 0 c0.12 0 0.19666 -0.02334 0.23 -0.07 s0.05 -0.12332 0.05 -0.22998 l0 -8.84 c0 -0.18666 -0.08666 -0.28 -0.26 -0.28 l-1.14 0 z M49.36 17.94 c0 0.28 -0.03334 0.54334 -0.1 0.79 s-0.18 0.46332 -0.34 0.64998 s-0.37334 0.33666 -0.64 0.45 s-0.6 0.17 -1 0.17 l-3.36 0 c-0.4 0 -0.73334 -0.05666 -1 -0.17 s-0.48 -0.26334 -0.64 -0.45 s-0.27334 -0.40332 -0.34 -0.64998 s-0.1 -0.51 -0.1 -0.79 l0 -10.56 c0 -0.57334 0.15666 -1.03 0.47 -1.37 s0.81 -0.51 1.49 -0.51 l3.6 0 c0.68 0 1.1767 0.17 1.49 0.51 s0.47 0.79666 0.47 1.37 l0 10.56 z M53.38 13.16 l0 6.84 l-2.82 0 l0 -14.5 l3.06 0 l1.58 6.12 l1.58 -6.12 l3.08 0 l0 14.5 l-2.82 0 l0 -6.84 l-1.84 5.8 z M63.88 13.16 l0 6.84 l-2.82 0 l0 -14.5 l3.06 0 l1.58 6.12 l1.58 -6.12 l3.08 0 l0 14.5 l-2.82 0 l0 -6.84 l-1.84 5.8 z M71.56 5.5 l5.64 0 l0.5 2.7 l-3.16 0 l0 3.44 l2.4 0 l0 2.5 l-2.4 0 l0 3.16 l3.04 0 l-0.5 2.7 l-5.52 0 l0 -14.5 z M81.60000000000001 8.04 l0 5 l1.42 0 c0.18666 0 0.28 -0.1 0.28 -0.3 l0 -4.4 c0 -0.2 -0.09334 -0.3 -0.28 -0.3 l-1.42 0 z M86.16000000000001 14.1 c0 0.32 -0.11 0.61334 -0.33 0.88 s-0.54334 0.4 -0.97 0.4 l1.52 4.62 l-3 0 l-1.4 -4.62 l-0.38 0 l0 4.62 l-2.9 0 l0 -14.5 l5.5 0 c0.68 0 1.1767 0.17 1.49 0.51 s0.47 0.79666 0.47 1.37 l0 6.72 z M89.66000000000001 20 c-0.84 0 -1.4267 -0.17334 -1.76 -0.52 s-0.5 -0.92 -0.5 -1.72 l0 -10.48 c0 -0.57334 0.16334 -1.0133 0.49 -1.32 s0.73 -0.46 1.21 -0.46 l3.82 0 l0.5 2.7 l-2.78 0 c-0.17334 0 -0.26 0.09334 -0.26 0.28 l0 8.54 c0 0.18666 0.08666 0.28 0.26 0.28 l2.78 0 l-0.52 2.7 l-3.24 0 z M94.42 5.5 l5.64 0 l0.5 2.7 l-3.16 0 l0 3.44 l2.4 0 l0 2.5 l-2.4 0 l0 3.16 l3.04 0 l-0.5 2.7 l-5.52 0 l0 -14.5 z"></path></g></svg>